<svg xmlns="http://www.w3.org/2000/svg" viewBox="0 0 370.19 389.69" id="drawMyself">
  <path d="M103.37 132.48c6.22 16.64 5.65 34.93 12 51.55 6.27 16.39 19.48 25 33.61 34.21 13 8.46 28.27 26.06 45.55 19.06 8.16-3.31 14.36-10.46 20.44-16.54q11.65-11.62 23.21-23.35c7.57-7.71 12.72-14.77 12.91-26 .19-11.78-4.17-23-4.76-34.74 0-.26-.68-.69-.67-.48.58 17.27 11.51 37.09-.74 52.6-5.6 7.08-13 13-19.41 19.29-6.81 6.69-13.42 13.66-20.54 20-7.36 6.58-16 11.19-26.06 8.24-9.42-2.75-16.59-10.19-24.46-15.67-14.68-10.21-30.24-18.28-37-36-6.46-16.87-6.61-35.44-13.74-52.16 0-.12-.46-.38-.36-.12zM174.26 111.28a5.08 5.08 0 0 0 5.18 0c4.58-2.13 8.43-5.22 13.3-6.92a40.86 40.86 0 0 1 15.63-2.39c5.19.27 10.09 2 15.11 3.2.56.14-.35-1-.62-1.07-8-2.81-16.28-4.3-24.65-2.56a49 49 0 0 0-11.85 4.1c-3.47 1.73-8.3 6.63-12.31 5.1-.45-.17.05.51.2.59z"/>
  <path d="M176.37 110.28c-3.36-.94-1-3.67.91-4.85a77.22 77.22 0 0 1 7.71-4.15 127.82 127.82 0 0 1 14.48-5.91c5.91-2 10.89-.58 16 2.71 2.95 1.9 4.68 4.83 7.64 6.69.48.31.38-.2.06-.4-2.8-1.77-4.09-4.71-6.62-6.7a24.36 24.36 0 0 0-6.64-3.24c-6.72-2.47-12.64.41-18.94 3-4 1.63-7.88 3.45-11.76 5.33-1.64.8-6 2.2-7 4.07-1.65 3.08 2.87 5.23 5.25 5 .66-.07-.76-1.41-1-1.49zM115.08 121.13c10-1.93 20.06-4.77 30.31-3 2.49.42 5.77 1.38 7.31-1.36 1.18-2.09.17-4.8-.78-6.74-.29-.58-2.31-1.7-1.74-.6.95 1.84 2 4.94.31 6.81-1.54 1.7-5.12.57-7 .33a36.34 36.34 0 0 0-8.53-.12c-6.89.72-13.73 2.58-20.5 4-.27.06.34.78.64.73z"/>
  <path d="M114.37 116.29c4.12-3.52 10.54-4.38 15.65-5.65 3.48-.87 20.82-6 21.29.31 0 .21.7.7.71.44.3-5.55-6.85-4.41-10.35-3.9a133.36 133.36 0 0 0-15.95 3.48c-4.14 1.12-8.61 1.91-11.94 4.79-.15.13.38.65.56.5zM149.42 132.82a4.23 4.23 0 0 1 .18 1.58 10.54 10.54 0 0 1-.37 1.47c0 .08.19.29.26.21.75-.82.5-2.31 0-3.21 0 0-.13-.11-.12-.05zM219.03 117.38a4.8 4.8 0 0 1-1.24 3.76 2.71 2.71 0 0 0-.91-1 5.61 5.61 0 0 0 1-2.13 9.71 9.71 0 0 0 1.11-.65z"/>
  <path d="M219.03 117.31v.07l-1-.81a5.35 5.35 0 0 1-.11 1.46 11 11 0 0 1-6.38 1c-.47-.05-.95-.13-1.44-.22a64.41 64.41 0 0 0-6.25-2c1 .13 2.06.37 3.08.57 3.85.75 7.65 1.38 11.13-.89.31-.24.95.48.97.82z"/>
  <path d="M217.99 116.57l1 .81a9.71 9.71 0 0 1-1.11.65 5.35 5.35 0 0 0 .11-1.46zM217.79 121.14c.06.17 0 .3-.13.34a10.12 10.12 0 0 1-5.75-.35c-2.12-.68-4.2-1.75-6.35-2.48a4.51 4.51 0 0 0-1.39-1.11c2 .26 4 .89 5.94 1.27a19.08 19.08 0 0 0 6.44 1.21.81.81 0 0 1 .38.16c-.08.12-.17.23-.26.35-.24.3.68 1.13.95.86z"/>
  <path d="M217.79 121.14l-.22.23c-.27.27-1.19-.56-.95-.86.09-.12.18-.23.26-.35a2.71 2.71 0 0 1 .91.98zM217.88 118.03a5.61 5.61 0 0 1-1 2.13.81.81 0 0 0-.38-.16 19.08 19.08 0 0 1-6.44-1.21c.49.09 1 .17 1.44.22a11 11 0 0 0 6.38-.98zM213 115.27c.3.13 1.18 1.17.45 1-5.84-1.76-11.78-3.71-17.68-1.07-4.63 2.08-6.61 6.81-8.9 11 0 0-.08 0-.07-.06 1.69-4.36 4.29-10.19 8.66-12.41 5.48-2.76 12.27-.67 17.54 1.54zM211.91 121.13a14.23 14.23 0 0 1-6.88 5.21 5.61 5.61 0 0 0 1.06-1 17.76 17.76 0 0 0 5.75-4.27s.05.04.07.06z"/>
  <path d="M206.79 120.51a4.36 4.36 0 0 1-.68 4.87c-.58.27-1.17.52-1.78.74a.15.15 0 0 1 0-.16c.73-1 1.84-1.73 2.2-3a5.1 5.1 0 0 0-1.42-4.51l.4.14a8.15 8.15 0 0 1 1.28 1.92z"/>
  <path d="M205.11 118.49a5.1 5.1 0 0 1 1.42 4.51c-.36 1.23-1.47 2-2.2 3a.15.15 0 0 0 0 .16 25.2 25.2 0 0 1-5.13 1.29.45.45 0 0 0-.12-.12 10.9 10.9 0 0 1-4.25-2.44 4.82 4.82 0 0 1-1-3.87 12.39 12.39 0 0 1 3.28-2.22 3.66 3.66 0 0 0 3.05 2.92 2.4 2.4 0 0 0 2.38-3.66.53.53 0 0 0-.11-.13 13.86 13.86 0 0 1 2.68.56z"/>
  <path d="M205.51 118.63l-.4-.14a3.55 3.55 0 0 0-1.7-1l.71.07a4.51 4.51 0 0 1 1.39 1.07zM206.11 125.38a5.61 5.61 0 0 1-1.06 1l-.33.11a.78.78 0 0 1-.39-.37c.61-.22 1.2-.47 1.78-.74z"/>
  <path d="M205.05 126.38l-.14.1a.24.24 0 0 1-.19 0zM210.06 118.79c-1.91-.38-3.95-1-5.94-1.27a2.14 2.14 0 0 0-.91-.22c-.07 0 0 .11.08.12h.12a11.33 11.33 0 0 0-1.54 0 .35.35 0 0 0-.31 0h-.08a7.7 7.7 0 0 0-1.82.45c-.15.06-.55-.34-.38-.44a7 7 0 0 1 4.53-.65 64.41 64.41 0 0 1 6.25 2.01z"/>
  <path d="M204.37 126.12a.78.78 0 0 0 .39.37c-4.43 1.5-9.45 1.12-14.4 1.79a3.48 3.48 0 0 1-.72-.37c3-.53 6.41 0 9.17-.42h.26l.15.05c.08 0 .07 0 0-.08a25.2 25.2 0 0 0 5.15-1.34zM204.12 117.52l-.71-.07h-.12s-.15-.12-.08-.12a2.14 2.14 0 0 1 .91.19zM203.37 117.45a3.55 3.55 0 0 1 1.7 1 13.86 13.86 0 0 0-2.7-.6 1.88 1.88 0 0 0-.54-.46 11.33 11.33 0 0 1 1.54.06z"/>
  <path d="M203.81 116.82a7 7 0 0 0-4.53.65c-.17.1.23.5.38.44a7.7 7.7 0 0 1 1.82-.45.68.68 0 0 0-.24.36 9.31 9.31 0 0 0-1.8.18 10.35 10.35 0 0 0-1.66.48v-.09c0-.03-.58-.68-.64-.4a2.49 2.49 0 0 0 0 .77 12.39 12.39 0 0 0-3.28 2.22v-.85s-.07-.08-.08 0a5.71 5.71 0 0 0-.24 1.16c-1.67 1.6-3.07 3.53-4.63 5.33a1.63 1.63 0 0 1 0-.49c0-.1-.27-.33-.3-.21 2.63-3.43 4.47-7.54 9-8.94a11.78 11.78 0 0 1 6.2-.16z"/>
  <path d="M202.52 118.02a2.4 2.4 0 0 1-2.38 3.66 3.66 3.66 0 0 1-3.05-2.92 7.1 7.1 0 0 1 .69-.28c.16.64.45 1.54 1.16 1.73a1.89 1.89 0 0 0 1.52-.37 2.19 2.19 0 0 0 .73-1.43c0-.22 0-.42.05-.59a9 9 0 0 1 1.17.07.53.53 0 0 1 .11.13z"/>
  <path d="M201.87 117.43a1.88 1.88 0 0 1 .54.46 9 9 0 0 0-1.17-.07.68.68 0 0 1 .24-.36zM201.87 117.43h-.39.08a.35.35 0 0 1 .31 0zM199.2 127.41v.08l-.15-.05zM199.2 127.41h-.18c-3.09-.95-5.86-2.91-5.49-6.2l.28-.26a4.82 4.82 0 0 0 1 3.87 10.9 10.9 0 0 0 4.25 2.44.45.45 0 0 1 .14.15zM197.76 118.39v.09a7.1 7.1 0 0 0-.69.28 2.49 2.49 0 0 1 0-.77c.11-.28.66.26.69.4z"/>
  <path d="M193.85 120.13v.85l-.28.26a5.71 5.71 0 0 1 .24-1.16s.04.03.04.05zM190.37 128.28s.24.2.15.21a1.37 1.37 0 0 1-.62-.14z"/>
  <path d="M190.37 128.28l-.47.07a2.15 2.15 0 0 1-.55-.4h.29a3.48 3.48 0 0 0 .72.37zM189.59 127.9h-.29a2 2 0 0 1-.28-.3 2.18 2.18 0 0 1-.38-.78 2.55 2.55 0 0 0 .26-.3 1.81 1.81 0 0 0 .21.77 1.76 1.76 0 0 0 .48.61zM189.3 127.97a2.15 2.15 0 0 0 .55.4 25.45 25.45 0 0 0-3.19.66s-.06 0 0 0a8.26 8.26 0 0 1 2.64-1.06z"/>
  <path d="M188.62 125.87c0-.12.31.11.3.21a1.63 1.63 0 0 0 0 .49 2.55 2.55 0 0 1-.26.3 2 2 0 0 1-.04-1z"/>
  <path d="M188.62 125.87a2 2 0 0 0 0 1 20 20 0 0 1-2 2.07c-.12.12-.25.23-.38.34s-.65-.36-.51-.46a15.58 15.58 0 0 0 2.87-3zM152.37 136.07c.23.23 0 .28-.21.12-1.47-1.4-4.68-.74-8 .3a3.37 3.37 0 0 0 .45-.48c.37-.11.74-.21 1.12-.29 2-.44 5.05-1.32 6.64.35z"/>
  <path d="M151.86 134.88c.18.25-.18.12-.27 0a20.44 20.44 0 0 0-8-5.82 4.58 4.58 0 0 0-2.95-1.24c-.39-.19-.75-.07-.42.46a12.69 12.69 0 0 0-1.85 0c.21-.25-.46-.71-.67-.68a1 1 0 0 0-.91.93 14 14 0 0 0-3.49 1.2.68.68 0 0 0 0-.14c0-.27-.81-1.15-1-.81a6.85 6.85 0 0 0-.76 1.93l-.3.19a29.61 29.61 0 0 1-7.43 3.83c-.12-.07-.16 0-.15.05a16.64 16.64 0 0 1-2.79.6c-.3 0-1.21-.72-.8-.91 6.41-3 11.65-8.59 19.21-7.54 5.21.7 9.52 3.87 12.58 7.95z"/>
  <path d="M150.48 130.47c.31.36-.13.3-.33.08-4.33-4.69-10.1-6.31-16.26-5.22-4.5.79-8.13 3.53-11.91 5.92-.05 0-.18-.1-.14-.13 5.09-3.46 10.3-7.76 16.82-7a18.5 18.5 0 0 1 11.82 6.35z"/>
  <path d="M143.6 129.07c1.93 1.73 2.68 4.89 1 6.94-.37.11-.74.22-1.1.35-.1-.11-.14-.23-.08-.3a5 5 0 0 0 1.21-3.71c-.18-2-1.52-3-3.15-3.76a.64.64 0 0 0-.1-.13 12.62 12.62 0 0 1 2.22.61z"/>
  <path d="M144.63 132.35a5 5 0 0 1-1.21 3.71c-.06.07 0 .19.08.3a41.27 41.27 0 0 1-5.91 1.85h-.11a.82.82 0 0 0-.28-.23c-2.1-.6-4.46-1.89-4.42-4.36 0-1.33.42-2.61.56-3.92a14 14 0 0 1 3.49-1.2 2.41 2.41 0 0 0 .2 1.35 4 4 0 0 0 2.62 2.07 1.79 1.79 0 0 0 2.36-1.26 2.47 2.47 0 0 0-.53-2.09c1.63.74 2.97 1.78 3.15 3.78z"/>
  <path d="M144.6 135.97a3.37 3.37 0 0 1-.45.48l-.36.11a.75.75 0 0 1-.29-.24c.36-.09.73-.2 1.1-.35zM144.15 136.49l-.13.11c-.05.05-.14 0-.23 0z"/>
  <path d="M143.5 136.36a.75.75 0 0 0 .29.24c-2.13.67-4.29 1.47-6.07 2a1.09 1.09 0 0 0-.24-.33h.11a41.27 41.27 0 0 0 5.91-1.91zM141.48 128.59a2.47 2.47 0 0 1 .53 2.09 1.79 1.79 0 0 1-2.36 1.26 4 4 0 0 1-2.62-2.07 2.41 2.41 0 0 1-.2-1.35 12 12 0 0 1 1.56-.22 1.89 1.89 0 0 0-.2 1.59c.17.52.55.63 1.08.55a1.44 1.44 0 0 0 1-2.13l.79.09zM143.6 129.07a12.62 12.62 0 0 0-2.22-.61 3.49 3.49 0 0 0-.56-.53l-.17-.1a4.58 4.58 0 0 1 2.95 1.24z"/>
  <path d="M141.37 128.46a.64.64 0 0 1 .1.13l-.44-.19z"/>
  <path d="M141.37 128.46l-.34-.06-.22-.09c-.1 0-.6-.49-.29-.49h.13l.17.1a3.49 3.49 0 0 1 .55.54z"/>
  <path d="M140.81 128.31l.22.09-.79-.09c-.33-.53 0-.65.42-.46h-.13c-.32-.03.18.42.28.46zM137.74 127.59c.21 0 .88.43.67.68a12 12 0 0 0-1.56.22 1 1 0 0 1 .89-.9zM137.72 138.56c.06.12.05.21-.09.18l-.33-.07z"/>
  <path d="M137.72 138.56l-.42.11a7 7 0 0 1-1-.29q.6-.06 1.2-.15a1.09 1.09 0 0 1 .22.33z"/>
  <path d="M137.48 138.23q-.6.09-1.2.15c-3.25-1.19-5.43-4.3-4.68-7.68a17 17 0 0 1 1.74-1c-.14 1.31-.54 2.59-.56 3.92 0 2.47 2.32 3.76 4.42 4.36a.82.82 0 0 1 .28.25z"/>
  <path d="M136.28 138.38a7 7 0 0 0 1 .29 9.47 9.47 0 0 1-2.22.36 18.15 18.15 0 0 1-11.19-4 .51.51 0 0 1-.17-.26l.15-.05h.06a18.28 18.28 0 0 0 12.37 3.66zM132.37 128.77c.19-.34 1 .54 1 .81a.68.68 0 0 1 0 .14 17 17 0 0 0-1.74 1 6.85 6.85 0 0 1 .74-1.95z"/>
  <path d="M123.87 134.72l-.15.05c-.01-.08.03-.12.15-.05zM258.84 94.18c6.66-2.62 6.82 11.1 6.73 13.58a44 44 0 0 1-2 11.08c-2 6.56-6.37 13-6.88 19.86 0 .27.72.84.76.54.93-5.81 4-10.88 6-16.33s3.72-11.58 3.43-17.56c-.19-3.81-2.26-15.27-8.72-11.85-.27.15.36.78.61.68zM232.98 86.09c4.36 9.92 7 20.36 9.48 30.87 2.37 10.17 3.17 20.41 4.71 30.7 2.33 15.57 10 30.23 24.9 37 1.23.55.27-.94-.27-1.24-8.57-4.78-15.43-11.34-19.43-20.45-3.66-8.53-4.25-17.93-5.33-27-2-16.68-6.17-34.54-13.62-49.65-.08-.15-.62-.49-.48-.17z"/>
  <path d="M257.16 159.55c-.64 4.67 3.43 10.5 5.63 14.38 2.81 4.93 6.22 9.51 11 12.71 1.26.85 1.4-.27.48-1.06a50.48 50.48 0 0 1-15.2-24.86c-.1-.39-1.76-2-1.87-1.17zM187.6 29.9c-2.1 7.07-8.56 11.13-14.56 14.71-6.2 3.69-12.78 6.68-19.28 9.79-11.62 5.57-23.39 11.88-31.31 22.35-8.69 11.46-14.47 26.17-18.47 39.88-4.21 14.46-5.91 29.66-3.25 44.57.06.31 1 1 .93.49-2.48-15.86-.63-31.68 4.13-46.94 4.47-14.34 10.72-29.7 21.21-40.75 9.23-9.74 21.73-15.14 33.58-20.92a149.87 149.87 0 0 0 16.37-8.93c5.09-3.33 10.7-7.18 11.51-13.63 0-.29-.76-1-.86-.62z"/>
  <path d="M100.61 128.86a45.06 45.06 0 0 1 5.81 13c.06.23.77.69.69.37a36 36 0 0 0-6.21-13.29c-.09-.11-.46-.3-.29 0zM253.04 93.15c-13.53-7.39-25.72-15.87-35-28.37-7.26-9.74-13.12-20.51-22.3-28.67-.7-.62-1.13-.15-.45.5 10.72 10.15 17 23.69 26.82 34.59a97.31 97.31 0 0 0 31.1 22.62c.66.3.15-.51-.14-.67z"/>
  <path d="M86.87 70.77a58.33 58.33 0 0 1 8.19-24.3c4.41-7 10.66-12.38 16.22-18.43 5.93-6.45 9.37-15 17.46-19.18 7.76-4 17.25-5.38 25.83-6.34 9.65-1.09 19.7-1.61 29.34-.09 9.36 1.47 18.09 5.64 27.23 8 21 5.53 30 22.67 39.82 40.36.12.23 1.06.85.81.29-5.59-12.37-12.71-25-23.55-33.55a44.66 44.66 0 0 0-16.06-8c-7.74-2.12-15.19-5.12-22.9-7.2-14.91-4-32.19-2.49-47.07 1-6.46 1.49-13.45 3.33-18.67 7.62-5.69 4.69-9.05 12.17-14.12 17.59-5.62 6-11.67 11.55-15.82 18.73A50.4 50.4 0 0 0 86.8 70.7s.07.08.07 0zM151.06 219.2c4.46 13.14 5.56 26.14 2.32 39.75a83.9 83.9 0 0 1-19.51 36.38c-9.1 10.18-19.14 19.35-24.78 32.06a64 64 0 0 0-3.92 40.86c.17.7 2.44 2.35 2.25 1.21-2.55-15.1-.73-30.72 6.65-44.29 6.93-12.76 18.55-21.75 27.14-33.25 14.84-19.86 21.57-49.21 10.58-72.39-.09-.18-.85-.68-.73-.33zM122.43 198.4c3.77 9.53 7.4 18.89 7.23 29.33a54 54 0 0 1-7.29 25.31c-8.73 15.63-22.65 27-36.28 38.18-14 11.43-28.93 23.5-36.78 40.2s-5.61 36.13-1.64 53.55c.14.58 2 2.08 1.94 1-1.64-15.68-4.86-31.48.33-46.89 4.73-14 15.34-25.26 26.19-34.92 20-17.83 45.23-33.83 53.32-61 4.46-15 1.34-31.22-6.36-44.59-.1-.17-.85-.7-.66-.22z"/>
  <path d="M100.14 153.39c.3 12.84 4.09 25.83 9.12 37.58s12 24 21 33.36c.24.24 1.18.61.7 0-7.81-10.5-15.09-20.71-20.26-32.83s-7.91-24.82-10.17-37.85c0-.1-.37-.36-.37-.23zM87.11 60.82c-3.24 7.65-4.38 17.44-5 25.68a67.6 67.6 0 0 0 1.81 21.47c3.75 15.06 10.43 28.72 11.36 44.42 0 .31 1 1 1 .63.67-14.57-6.7-28.26-10.55-41.95a70 70 0 0 1-2.47-24.77c.68-8.54 3.5-16.82 4.14-25.29 0-.09-.25-.33-.3-.21z"/>
  <path d="M87.06 119.31c2.7 17.68 4.09 35 1.33 52.81a140 140 0 0 1-18 50.11c-17.47 29.35-43.7 53.25-55.55 85.87-6.09 16.78-8.28 35.53-1.68 52.49.2.5 2.06 1.62 1.79.8-11.6-34.85 6.92-68.2 27.13-95.64 10.29-14.09 21.45-27.72 30.29-42.88a142.49 142.49 0 0 0 17.09-46.19c3.36-18.67 3.46-38.85-2-57.14 0-.12-.45-.45-.41-.23zM196.62 19.69a15 15 0 0 0-3.6-14.41c-.49-.54-1.54-.69-.79.2a15.86 15.86 0 0 1 3.35 13.49c-.07.37.93 1.15 1 .74zM158.84 124.42c5.79 13.1 2.33 27.76 8 40.74.08.19.72.59.56.2-5.1-13-.45-29.09-8.45-40.93 0 0-.09-.06-.07 0zM161.07 175.31c4.2-.12 7.33 3.22 11.48 3.12s5.73-2.13 8.56-4.68c2.27-2.05 4.14-1.62 6.94-1.16 1.4.22 2.61.5 3.91-.32 2.6-1.62 2.27-5.23 2-7.83 0-.23-.76-.74-.76-.47 0 2.06.15 4.83-1.56 6.34-2.54 2.23-3.48.61-6 .34-3-.32-3.5.86-5.46 3a10.8 10.8 0 0 1-5.05 3.62c-3.58 1.1-5.09-.11-8.42-1.52-2.17-.91-3.65-1.41-6-1-.21 0 .26.55.43.55zM155.37 165.66c-1.63 2.47-2.65 6.35-1.09 9.07 1.22 2.13 4.17 4.23 6.61 2.82.38-.22-.47-.87-.74-.85-3.41.36-5.82-2.59-5.69-5.89a18.84 18.84 0 0 1 1.25-4.88c0-.1-.27-.37-.34-.27zM179.96 164.97a12.18 12.18 0 0 0-1.17-10.23c-.13-.2-1.09-.83-.84-.2 1.36 3.36 2.14 6.27 1.27 9.91-.07.25.65.81.74.52zM180.02 131.34a32.36 32.36 0 0 1 .61-10.52c.06-.33-.86-1.1-1-.7a19.42 19.42 0 0 0 0 11c0 .12.44.44.41.22zM151.01 123.19c3.62 2.2 5.06 6 6.43 9.7.13.33 1.89 1.91 2 1.06.22-2.44-1.3-5.06-2.7-6.94a13.9 13.9 0 0 0-5.85-4.5c-.68-.32-.13.51.15.68zM150.13 194.49c5.15.25 9.42-2 14.21-3.53a19.12 19.12 0 0 1 9.16-.75c2.41.38 4.89 1.09 7.31.37s4.3-2.5 6.79-3.13c3-.75 6.11-.43 9.13-.48 5.44-.1 10.37-.84 15.19-3.52.25-.13-.33-.71-.56-.56-6.07 3.75-11.51 3.45-18.37 3.13a24.46 24.46 0 0 0-5.54.26c-2.69.5-4.43 2-6.9 2.94-4.64 1.75-9.71-.69-14.58.42-5.57 1.26-10.44 4.32-16.32 4.14-.38 0 .22.7.48.71z"/>
  <path d="M151.78 194.56c4.81 1.46 9.9 2.65 15 2.1 2.77-.31 5.42-1.2 8.15-1.75s5.46-.41 8.14-1c2.42-.49 4.47-1.85 6.8-2.61 2.58-.84 5.23-.83 7.9-1.09a17.57 17.57 0 0 0 12-5.72c.14-.13-.32-.55-.48-.44-4.32 3.08-8 4.74-13.33 5.12a32.12 32.12 0 0 0-6.33.84c-2.35.67-4.43 2.07-6.8 2.69-4.3 1.12-9 1.23-13.38 2.2-6.33 1.41-11.89.18-18.07-1.05-.36-.07.21.61.39.67z"/>
  <path d="M149.75 194.22c8.68 8.28 18.16 16.52 30.92 15.61 12-.86 21.14-9.59 25.25-20.48 0-.12-.34-.45-.41-.33-5.46 8.52-12.62 16.55-23.16 18.27a29 29 0 0 1-18-2.67c-5.27-2.75-9.62-7.25-14.49-10.62-.27-.19-.28.05-.1.22zM169.64 196.25v-.06.06z"/>
  <path d="M169.66 196.55c9.46 5.1 17.27 1.57 24.11-6 .14-.16-.37-.63-.54-.48-7.56 6.64-13.5 11.05-23.65 6-.4-.19-.1.31.08.41zM215.49 186.69c.73-1.1 1.35-3.29.82-4.57a5.71 5.71 0 0 0-3-2.75c-.46-.2-.12.44 0 .56 1 .84 2 1.52 2.37 2.93s-.24 2.37-.41 3.67c0 .05.16.23.21.16zM147.98 192.51c-.61.27-.93 1.52-1 2.15a1.65 1.65 0 0 0 .93 1.61c.27.14.45 0 .25-.27-.71-.94.44-2.11.23-3.13 0-.13-.29-.43-.44-.36zM197.88 160.47c3.56 6.59 11.26 11.29 18.86 10.43.22 0-.27-.55-.43-.56-7.62-.24-13.95-3.21-18.16-9.8-.05-.08-.36-.24-.27-.07zM141.47 184.76c4.57-2.06 8.63-6.4 9.3-11.52 0-.15-.38-.5-.45-.32-1.81 5-4.37 8.94-9.23 11.41-.18.09.23.5.38.43zM114.1 91.97c-.95 19.75-5.44 39.6-3.43 59.41 1.44 14.22 6.89 30.29 21.51 35.63 1 .36-.19-1.2-.65-1.39-17.45-7.25-19.93-29.6-19.62-46.1.29-15.7 3.2-31.23 3-46.95 0-.3-.83-.89-.84-.6zM235.3 198.67c-6.53 18.38-6.58 40.63-1.88 59.42.1.4 1.37 1.3 1.25.67a146.06 146.06 0 0 1-2.91-30.65c.21-9.92 2.2-19.32 4.18-29 .05-.22-.55-.72-.64-.46z"/>
  <path d="M230.62 237.68c6 15 .79 30.42-3.8 45-4.77 15.19-8.83 30.85-9.06 46.86-.33 22.68 8.09 47.56 28.32 59.9 1.26.77.49-.92-.07-1.32-23.29-16.87-28.64-46.15-24.71-73.15 2-14.1 6.6-27.44 10.34-41.13 3.21-11.77 5.15-24.67-.55-36-.07-.14-.61-.5-.47-.16zM263.97 121.22c-1.43 18.35 5 36.49 10.67 53.63 6.51 19.53 11.31 38.55 11.69 59.27.69 37.94-8.2 78.69 8.88 114.4 7.05 14.75 18.26 27.69 33.25 34.63 1.66.77.43-1.31-.37-1.71-34-16.7-41.31-57.11-41.07-91.36.13-19.11 2-38.2 1.38-57.32-.61-18-4.52-34.88-10.2-51.91-6.49-19.43-13.05-38.28-13.31-59 0-.32-.89-1-.92-.65z"/>
  <path d="M238.73 226.7c11.23 11.25 9.65 27.49 6.81 41.82-2.89 14.56-6.15 29.05-7.92 43.81-1.59 13.27-2.16 27 .9 40.09 2.27 9.7 6.69 21.5 16.47 25.87 1.94.87.79-1.34-.1-1.92-12.4-8.06-14.42-27.58-14.52-41.08-.12-14.34 2.12-28.66 4.75-42.73 3.91-20.91 14.48-51-5.92-66.91-1.23-1-1.27.25-.47 1zM154.64 255.87c14.31 2 23.62 15.48 38.76 14.77 13.34-.63 29.73-5.23 39.48-14.77.62-.61-1.62-2.74-2.3-2.07-5.21 5.17-11.6 8.17-18.49 10.38-7.45 2.35-16.07 4.92-23.93 4.3-12.72-1-21.33-13.23-34.12-13.48-.49 0 .31.83.6.87z"/>
  <path d="M223.64 210.8c-.86 15.74-9.32 29.72-10.19 45.33 0 .36 1 1.13 1 .74 2.24-15.25 10.9-30.21 9.57-45.81 0-.12-.41-.41-.42-.26zM286.16 266.27c3.69 7.45 11.56 11.24 19.13 13.69a140.08 140.08 0 0 0 18.41 4.52c6.48 1.15 13.12 1.35 19.56 2.66 5 1 9.85 3 12.67 7.49a31 31 0 0 1 3.63 10.1 133.4 133.4 0 0 1 2.58 20.7 160.52 160.52 0 0 1-3.9 42.7c-.19.86 2.16 2.63 2.4 1.71a140.51 140.51 0 0 0 4.08-42.8c-.58-10.73-1.06-24.81-7.93-33.73-6.51-8.45-17.28-8.76-27-9.92a142.5 142.5 0 0 1-24-4.89c-7.32-2.18-14.22-5.18-18.39-11.94-.2-.33-1.63-1.13-1.21-.29zM35.69 270.38c-6.59 6.07-15.33 8-22.29 13.4-7.75 6-9.73 16.13-11.18 25.28-3.59 22.68-3.14 47.41 3.75 69.45.16.49 1.91 1.84 1.74.94-4.34-22.9-6.52-45.28-2.78-68.48 1.5-9.28 3.55-19.4 11.58-25.29 6.65-4.89 16-6.64 20.82-13.83.37-.55-1.15-1.94-1.64-1.48z"/>
  <path d="M83.85 100.35c-2.19 8.67-1.55 17.63-1.24 26.48a106.83 106.83 0 0 1-2 26.53c-3.55 16.47-8.85 32.78-13.44 49-8.68 30.62-20.44 61-46.31 81.18-.55.43 1.3 2.3 2 1.8 25.93-18.59 37.36-50.44 45.51-79.95 4.67-16.86 10.14-33.81 13.74-50.93 3.77-17.89.21-35.83 2.08-53.85 0-.12-.33-.41-.37-.26zM249.15 45.97c10 17.52 20.78 34.57 29.07 53s13.24 37.93 16.54 58c5.95 36.11 9.12 74.29 31.78 104.6a115.84 115.84 0 0 0 42.63 35.4c2.08 1 .51-1.63-.47-2.14-16.12-8.45-30.32-20-40.94-34.86-11-15.4-17.35-33.33-21.49-51.67-8.06-35.74-9.88-72.27-25-106.16-8.75-19.59-19.94-38.19-31.78-56-.06-.09-.46-.3-.34-.08zM240.61 55.08c30.32 36.64 1.84 90 27.81 128.29.16.24.88.56.56.06-24.73-38.78 3.67-92.74-28.12-128.46-.16-.17-.48-.21-.25.07z"/>
  <path d="M259.84 128.28c4.59 18.78-.86 41.61 12.93 57.34.34.4 1.68.86 1-.05-12.47-16.58-8.15-37.93-13.22-56.91-.07-.23-.8-.72-.71-.38z"/>
</svg>
